<svg xmlns="http://www.w3.org/2000/svg" xmlns:xlink="http://www.w3.org/1999/xlink" version="1.1" x="0px" y="0px" viewBox="0 0 100 125" style="enable-background:new 0 0 100 100;" xml:space="preserve"><path d="M77.7,34.8c-5.3-5.7-11.7-8.8-19.6-9.5C51.9,24.8,39.9,29,36,35.9c-2.3,4.2-3.4,9.7-4.2,13.8c-0.4,2.1-0.8,4.4-1.3,5  c-8.6,7-13,11.2-13.1,12.6c0,0.3,0.1,0.7,0.3,0.9c0.8,0.8,2.1,0.7,4.1,0.5c1.6-0.2,3.8-0.4,6.4-0.2c2.2,0.1,4.4,1.2,6.8,2.4  c3.4,1.7,7.3,3.6,12.7,3.7c0.1,0,0.2,0,0.3,0c8.6,0,16.8-10.1,18.4-12.3c2.2-0.1,11.7-0.9,15.4-3.8l0.3-0.3l0.1-0.4  C82.4,57.3,84.2,41.9,77.7,34.8z M37.7,36.9c3.5-6.2,14.7-10.1,20.3-9.6c0.4,0,0.7,0.1,1.1,0.1c1.5,1.1,3.7,7,4.3,13.2  c0.5,4.9-0.9,16.4-1.3,19.7c-4.7-0.3-12-1.5-17.2-3c-5.4-1.6-10-2.4-12.1-2.7c0.3-1,0.6-2.5,1-4.5C34.5,46.2,35.5,40.8,37.7,36.9z   M48.1,72.7c-0.1,0-0.2,0-0.2,0c-5-0.1-8.6-1.9-11.9-3.5c-2.5-1.2-4.9-2.4-7.6-2.6c-0.8-0.1-1.5-0.1-2.2-0.1c-1.9,0-3.4,0.2-4.6,0.3  c-0.6,0.1-1.3,0.1-1.8,0.1c1.6-1.9,6.8-6.4,11.7-10.4c1.5,0.2,6.6,1,12.7,2.8c6.2,1.9,15,3.1,19.6,3.2  C61.2,65.7,54.6,72.7,48.1,72.7z M80.4,57.3c-2.7,1.7-8.6,2.6-12.3,3l0-0.1l-2.2,0.2c-0.4,0-1.1,0.1-1.8,0c0.5-3.6,1.8-14.9,1.3-20  C65,36.7,63.8,31.2,62,28c5.6,1.2,10.3,3.9,14.3,8.2C81.6,41.9,80.6,54.8,80.4,57.3z"/><text x="0" y="115" fill="#000000" font-size="5px" font-weight="bold" font-family="'Helvetica Neue', Helvetica, Arial-Unicode, Arial, Sans-serif">Created by Mohamad Arif Prasetyo</text><text x="0" y="120" fill="#000000" font-size="5px" font-weight="bold" font-family="'Helvetica Neue', Helvetica, Arial-Unicode, Arial, Sans-serif">from the Noun Project</text></svg>